<?xml version="1.0" standalone="no"?>
<!DOCTYPE svg PUBLIC "-//W3C//DTD SVG 20010904//EN"
 "http://www.w3.org/TR/2001/REC-SVG-20010904/DTD/svg10.dtd">
<svg version="1.0" xmlns="http://www.w3.org/2000/svg"
 width="225.000000pt" height="225.000000pt" viewBox="0 0 225.000000 225.000000"
 preserveAspectRatio="xMidYMid meet">
<metadata>
Created by potrace 1.14, written by Peter Selinger 2001-2017
</metadata>
<g transform="translate(0.000000,225.000000) scale(0.100000,-0.100000)"
fill="#000000" stroke="none">
<path d="M1030 2219 c-582 -50 -1024 -557 -997 -1144 13 -281 125 -534 321
-731 143 -142 310 -237 515 -291 84 -23 116 -26 261 -26 145 0 177 3 261 26
206 54 374 149 515 291 165 166 268 365 308 595 122 711 -462 1342 -1184 1280z
m270 -160 c621 -112 967 -790 690 -1354 -284 -580 -1046 -722 -1517 -281 -154
144 -245 305 -288 509 -19 88 -19 286 0 374 109 514 599 844 1115 752z"/>
<path d="M1226 1758 c-3 -40 -8 -224 -12 -409 l-6 -336 54 -6 c29 -2 54 -4 55
-3 1 1 65 602 80 754 l6 62 -71 0 c-39 0 -77 3 -85 6 -12 4 -16 -8 -21 -68z"/>
<path d="M760 1736 l0 -83 56 -7 c118 -14 162 -72 119 -155 -14 -29 -85 -71
-118 -71 -13 0 -17 -9 -17 -45 0 -41 2 -45 28 -51 104 -23 142 -55 142 -120 0
-73 -70 -134 -155 -134 -33 0 -35 -2 -35 -31 l0 -32 78 6 c129 10 220 53 259
125 60 107 28 200 -86 250 l-44 20 30 16 c72 37 120 127 104 196 -29 126 -140
200 -303 200 l-58 0 0 -84z"/>
<path d="M608 1772 c-63 -10 -88 -19 -88 -29 0 -11 71 -382 130 -678 l10 -50
42 3 41 4 -7 307 c-8 362 -14 461 -30 460 -6 -1 -50 -8 -98 -17z"/>
<path d="M1425 1733 c-3 -32 -8 -74 -10 -94 -5 -35 -3 -37 40 -53 87 -34 111
-106 55 -170 -17 -19 -48 -40 -68 -46 -48 -16 -62 -35 -62 -83 0 -41 5 -52 96
-193 l52 -82 41 8 c23 4 44 10 46 12 4 4 -34 114 -80 230 -5 13 3 22 34 37
142 73 199 220 136 348 -38 76 -108 117 -232 137 l-42 6 -6 -57z"/>
<path d="M1176 873 c-4 -54 -8 -115 -10 -137 l-4 -39 49 49 c47 46 50 48 63
29 39 -54 40 -55 59 -40 18 13 17 15 -9 54 l-27 42 22 23 c20 21 20 24 6 36
-14 11 -22 7 -62 -31 l-45 -44 6 78 c7 77 7 77 -18 77 -24 0 -24 -2 -30 -97z"/>
<path d="M607 933 c-2 -5 3 -61 11 -125 15 -112 17 -118 39 -118 13 0 23 5 23
10 0 6 18 10 40 10 82 0 121 90 64 147 -22 22 -32 25 -75 21 -49 -5 -49 -5
-55 28 -4 24 -12 34 -25 34 -10 0 -20 -3 -22 -7z m145 -110 c22 -20 23 -31 1
-55 -21 -23 -45 -23 -68 2 -17 18 -17 21 -1 45 19 29 42 32 68 8z"/>
<path d="M1377 927 c-8 -21 8 -39 29 -35 27 5 25 42 -2 46 -12 2 -24 -3 -27
-11z"/>
<path d="M1098 894 c-45 -24 -52 -47 -28 -100 25 -58 25 -69 0 -80 -14 -6 -17
-13 -11 -23 8 -12 14 -12 40 -1 42 17 48 49 22 108 -20 47 -20 47 -1 64 37 31
21 54 -22 32z"/>
<path d="M1477 825 c-11 -123 -11 -125 18 -125 23 0 25 4 25 47 l0 47 59 -58
c55 -55 59 -56 64 -34 4 13 7 56 7 96 0 70 -1 72 -25 72 -22 0 -25 -4 -25 -40
0 -22 -4 -40 -9 -40 -5 0 -32 25 -59 56 l-49 56 -6 -77z"/>
<path d="M883 855 c-88 -38 -61 -165 36 -165 22 0 43 -4 46 -10 3 -5 14 -10
25 -10 19 0 27 34 32 145 2 45 0 50 -20 53 -12 2 -22 -2 -22 -8 0 -10 -7 -10
-55 6 -5 2 -24 -3 -42 -11z m71 -51 c21 -21 20 -37 -3 -58 -39 -35 -94 10 -65
52 18 26 46 28 68 6z"/>
<path d="M1380 816 c0 -87 9 -118 34 -114 11 2 21 9 20 16 -1 6 -2 44 -2 82
-2 68 -3 70 -27 70 -24 0 -25 -3 -25 -54z"/>
<path d="M1118 682 c-16 -3 -18 -16 -18 -90 0 -106 6 -132 31 -132 11 0 19 4
19 8 0 5 14 7 31 4 88 -13 129 95 54 144 -17 11 -35 14 -59 10 -34 -6 -35 -5
-38 26 -2 26 -7 33 -20 30z m100 -104 c22 -22 14 -57 -13 -64 -46 -11 -77 42
-37 65 23 14 36 13 50 -1z"/>
<path d="M1310 680 c-18 -11 -4 -40 20 -40 13 0 20 7 20 19 0 22 -21 33 -40
21z"/>
<path d="M1380 577 c0 -96 0 -97 24 -97 23 0 24 3 19 35 -3 19 -2 35 3 35 5 0
33 -25 61 -57 l53 -58 0 98 c0 90 -1 97 -20 97 -17 0 -20 -7 -20 -42 l-1 -43
-59 65 -60 65 0 -98z"/>
<path d="M631 641 c-11 -7 -12 -29 -6 -110 4 -55 10 -101 14 -101 3 0 16 3 28
6 19 5 21 11 16 58 -6 56 8 96 32 96 9 0 15 10 15 26 0 24 -3 26 -30 21 -17
-4 -30 -2 -30 3 0 12 -20 13 -39 1z"/>
<path d="M920 618 c0 -18 -3 -70 -7 -115 -6 -78 -5 -83 14 -83 11 0 23 3 27 7
4 4 24 6 44 5 65 -5 111 62 78 113 -22 33 -52 48 -87 43 -27 -4 -29 -2 -29 29
0 26 -4 33 -20 33 -16 0 -20 -7 -20 -32z m114 -84 c9 -8 16 -19 16 -24 0 -15
-31 -40 -49 -40 -35 0 -54 43 -29 68 17 17 44 15 62 -4z"/>
<path d="M1592 624 c-26 -18 -28 -56 -7 -94 20 -36 19 -68 -4 -75 -24 -7 -17
-35 8 -35 52 0 76 57 46 110 -19 33 -19 69 0 76 21 8 19 34 -3 34 -10 0 -28
-7 -40 -16z"/>
<path d="M1300 593 c0 -21 -3 -55 -6 -75 -6 -36 -5 -38 20 -38 l27 0 -3 72
c-2 60 -6 73 -20 76 -15 3 -18 -4 -18 -35z"/>
<path d="M1686 601 c-3 -4 6 -6 21 -3 19 4 24 2 18 -8 -6 -9 -4 -11 5 -5 10 6
12 1 8 -18 -3 -15 -1 -24 3 -21 13 8 11 38 -3 52 -14 14 -44 16 -52 3z"/>
<path d="M759 590 c-29 -17 -43 -65 -27 -97 38 -81 158 -57 158 32 0 47 -29
75 -77 75 -21 0 -45 -5 -54 -10z m89 -62 c3 -22 -2 -30 -23 -40 -22 -10 -29
-9 -46 9 -18 17 -19 24 -9 42 9 17 19 21 43 19 27 -2 33 -8 35 -30z"/>
<path d="M1696 572 c-3 -5 1 -9 9 -9 8 0 12 4 9 9 -3 4 -7 8 -9 8 -2 0 -6 -4
-9 -8z"/>
</g>
</svg>
